<?xml version="1.0"?>
<svg width="415" height="196" xmlns="http://www.w3.org/2000/svg" xmlns:svg="http://www.w3.org/2000/svg" preserveAspectRatio="xMidYMid meet" version="1.0">
 <metadata>Created by potrace 1.16, written by Peter Selinger 2001-2019</metadata>
 <g class="layer">
  <title>Layer 1</title>
  <g fill="#000000" id="svg_1" transform="translate(0.000000,196.000000) scale(0.100000,-0.100000)">
   <path d="m2289,1787c-108,-40 -169,-140 -135,-220c14,-36 58,-67 93,-67c31,0 63,29 63,57l0,27l-28,-27c-36,-34 -44,-34 -76,4c-40,48 -35,81 23,139c84,83 205,102 272,41c42,-37 48,-86 17,-131c-21,-32 -29,-35 -77,-38c-44,-3 -51,-5 -41,-18c8,-8 30,-14 57,-14c55,0 96,36 113,99c15,55 0,100 -43,132c-27,20 -45,24 -117,27c-53,1 -99,-3 -121,-11z" fill="#bfbfbf" id="svg_2" stroke="#ed1515" stroke-width="0"/>
   <path d="m1918,1500c-10,-374 -10,-657 -1,-1041c12,-457 21,-230 21,516c0,742 -9,972 -20,525z" fill="#bfbfbf" id="svg_3" stroke="#ed1515" stroke-width="0"/>
   <path d="m837,1629c-22,-13 -61,-89 -82,-163c-14,-47 -15,-63 -5,-86c16,-38 10,-59 -74,-278c-87,-222 -122,-329 -113,-339c11,-10 24,7 46,63c11,28 29,72 41,97l21,45l77,-5c74,-5 79,-4 110,22c47,39 65,80 59,130c-5,52 -29,85 -84,119c-46,27 -51,41 -29,71c13,18 19,19 84,7c136,-23 217,-64 319,-162c104,-101 169,-226 180,-347l6,-63l-84,-38c-46,-21 -91,-47 -99,-57c-10,-12 -17,-51 -20,-124c-3,-61 -9,-106 -15,-106c-5,0 -15,37 -22,82c-12,90 -15,98 -43,113c-29,16 -80,-32 -80,-75c0,-70 -21,-85 -44,-30c-19,44 -47,51 -116,26c-30,-11 -58,-17 -62,-15c-5,3 -8,17 -8,31c0,55 -99,115 -163,99c-35,-8 -75,-53 -88,-97c-10,-32 -9,-46 6,-85c13,-36 15,-48 5,-54c-21,-13 -119,-44 -124,-39c-3,3 20,67 50,144c64,162 73,195 51,195c-14,0 -74,-132 -118,-259c-22,-62 -25,-117 -6,-124c18,-6 89,17 304,99c107,41 203,74 213,74c10,0 23,-12 30,-29c13,-33 50,-47 80,-31c17,9 32,46 42,105c8,47 24,14 31,-64c8,-94 17,-111 57,-111c43,0 52,20 58,136c6,124 11,132 107,164c47,16 75,19 117,14c74,-9 188,25 231,67c28,28 29,34 25,92c-16,190 -140,427 -294,562c-80,70 -195,145 -222,145c-37,0 -22,-21 47,-66c147,-97 279,-240 342,-371c45,-93 94,-271 85,-309c-7,-28 -56,-54 -139,-75c-64,-16 -73,-6 -98,107c-57,268 -248,459 -517,520c-37,8 -80,20 -95,26c-26,10 -28,14 -22,47c4,19 17,60 29,91c28,70 49,79 149,60c39,-7 92,-15 117,-17l45,-4l-23,20c-23,20 -178,61 -228,61c-16,0 -37,-5 -47,-11z" fill="#bfbfbf" id="svg_4" stroke="#ed1515" stroke-width="0"/>
   <path d="m3602,1628c-6,-6 -12,-35 -12,-63c0,-56 -33,-119 -79,-152c-22,-15 -25,-15 -37,2c-16,22 -17,44 -3,104c11,51 6,79 -14,63c-8,-7 -20,-6 -37,3c-35,20 -44,19 -79,-11c-20,-17 -36,-44 -46,-79c-24,-80 -47,-90 -104,-46c-24,18 -24,19 -8,60c21,51 21,56 1,75c-30,31 -52,18 -126,-74c-41,-52 -79,-90 -89,-90c-10,0 -30,11 -46,24c-26,23 -27,26 -15,58c15,43 15,71 0,86c-30,30 -48,16 -170,-137c-24,-30 -48,-56 -55,-58c-16,-6 -43,48 -43,85c0,16 5,44 11,61c9,25 9,35 0,44c-19,18 -39,-16 -46,-78c-9,-69 8,-123 41,-131c46,-12 71,5 144,96c41,49 79,90 87,90c20,0 16,-12 -22,-66c-19,-27 -35,-54 -35,-61c0,-7 18,-13 42,-15c51,-4 58,-20 21,-50c-132,-108 -166,-179 -100,-209c57,-26 155,66 177,164c8,41 24,64 97,143c48,52 91,94 95,94c17,0 6,-29 -27,-73c-19,-25 -35,-51 -35,-56c0,-6 17,-11 39,-11c21,0 44,-6 50,-14c10,-12 2,-22 -43,-55c-95,-70 -133,-146 -91,-181c19,-16 76,-7 109,17c30,21 71,100 87,161c11,49 31,62 58,38c25,-22 38,-20 81,14c43,34 50,36 50,15c0,-8 11,-22 25,-31c36,-23 62,-9 122,65c51,64 75,74 93,40c12,-22 -1,-49 -24,-49c-7,0 -20,-6 -30,-13c-15,-11 -17,-17 -7,-35c14,-27 62,-30 82,-5c8,9 29,22 47,30c36,15 43,33 12,33c-10,0 -25,10 -31,23c-6,12 -21,33 -33,45c-15,17 -21,37 -21,70c0,43 -2,47 -25,50c-14,2 -31,-3 -38,-10z" fill="#bfbfbf" id="svg_5" stroke="#ed1515" stroke-width="0"/>
   <path d="m2282,1083c-60,-21 -117,-78 -132,-131c-15,-57 -5,-96 32,-127c51,-43 158,-30 158,20c0,22 -29,26 -40,5c-26,-48 -120,-3 -120,56c0,35 42,106 75,128c15,10 56,24 92,31c58,12 72,12 112,-2c25,-8 61,-26 80,-40c87,-66 96,-228 15,-292c-22,-17 -38,-21 -78,-19l-51,3l3,95c4,110 15,156 44,171c27,14 8,34 -25,26c-34,-9 -47,-47 -47,-142c0,-46 -5,-96 -10,-111c-9,-23 -15,-26 -40,-20c-17,3 -42,1 -56,-4c-20,-8 -25,-16 -22,-36c4,-35 34,-45 83,-28c22,8 70,14 107,14c37,0 78,4 91,9c66,25 113,158 88,249c-15,53 -69,114 -125,141c-52,26 -168,27 -234,4z" fill="#bfbfbf" id="svg_6" stroke="#ed1515" stroke-width="0"/>
   <path d="m1101,968c-39,-21 -66,-65 -66,-109c0,-35 6,-46 43,-80c35,-33 45,-38 61,-29c11,5 35,10 54,10c85,0 111,137 36,192c-33,25 -97,33 -128,16z" fill="#bfbfbf" id="svg_7" stroke="#ed1515" stroke-width="0"/>
   <path d="m2732,874c-33,-23 -52,-67 -52,-119c0,-54 25,-85 70,-85c17,0 47,9 67,20c21,11 43,20 50,20c7,0 17,-9 23,-20c6,-11 15,-20 20,-20c4,0 29,30 53,68c25,37 57,78 71,91l25,24l-2,-75c-2,-84 9,-108 53,-108c27,0 80,39 80,60c0,17 -15,11 -40,-15c-29,-31 -36,-31 -51,-4c-8,16 -8,36 0,80c13,63 4,99 -25,99c-9,0 -42,-25 -74,-56l-59,-56l2,46c2,50 -17,82 -33,56c-5,-8 -10,-38 -10,-66c0,-50 -12,-74 -37,-74c-9,0 -13,14 -13,40c0,90 -58,136 -118,94z" fill="#bfbfbf" id="svg_8" stroke="#ed1515" stroke-width="0"/>
   <path d="m2261,569c-92,-46 -135,-121 -111,-193c13,-39 62,-86 89,-86c31,0 71,39 71,68l0,27l-23,-28c-31,-39 -66,-34 -91,14c-25,46 -16,81 33,130c67,67 206,89 269,42c70,-52 35,-173 -49,-173c-37,0 -37,0 -44,51c-6,39 -11,49 -24,47c-13,-3 -17,-21 -22,-98c-3,-52 -13,-120 -21,-150c-9,-30 -19,-70 -22,-87c-5,-29 -3,-33 17,-33c19,0 26,11 45,72c12,40 25,92 28,116c6,39 9,42 37,42c37,0 89,31 113,68c11,16 18,46 18,74c0,84 -63,128 -182,128c-57,0 -80,-5 -131,-31z" fill="#bfbfbf" id="svg_9" stroke="#ed1515" stroke-width="0"/>
   <path d="m2915,556c-30,-30 -43,-75 -59,-214c-14,-118 -26,-145 -60,-140c-19,3 -21,10 -21,63c0,33 3,75 7,93c7,30 6,32 -12,22c-14,-7 -26,-8 -39,0c-34,17 -53,11 -92,-30c-46,-48 -61,-115 -35,-155c21,-32 47,-32 84,0c37,31 39,31 64,0c22,-29 54,-32 86,-9c21,14 24,14 48,-5c35,-28 80,-26 129,4c49,30 74,31 108,5c30,-24 84,-26 113,-5c19,12 24,12 40,0c27,-20 78,-18 121,5c21,11 43,20 49,20c6,0 19,9 29,20c16,17 16,20 2,20c-9,0 -19,-5 -22,-10c-11,-18 -25,0 -25,34c0,46 -19,95 -40,106c-54,29 -104,-8 -134,-98c-22,-64 -56,-98 -85,-83c-43,23 -45,46 -12,139c50,146 51,222 2,222c-39,0 -57,-53 -71,-204c-6,-61 -14,-114 -19,-119c-4,-4 -11,19 -14,53c-7,85 -34,112 -72,73c-17,-17 -17,-63 0,-134c8,-30 -15,-42 -52,-28c-37,14 -37,43 2,129c20,44 41,107 47,139c10,51 9,63 -6,85c-20,32 -30,32 -61,2z" fill="#bfbfbf" id="svg_10" stroke="#ed1515" stroke-width="0"/>
  </g>
 </g>
</svg>